<svg width="16" height="12" viewBox="0 0 16 12" fill="none" xmlns="http://www.w3.org/2000/svg">
<path fill-rule="evenodd" clip-rule="evenodd" d="M9.55536 0.249977V6.48273H12.0309C12.0309 7.8586 11.059 9.55621 9.54925 10.1262L10.1666 11.4653C13.4306 10.8156 15.7594 8.4071 15.7594 4.8556V0.249977H9.55536ZM15.136 4.8556C15.136 7.77586 13.3786 9.99134 10.515 10.7452V10.7421L10.3652 10.4173C11.8536 9.55008 12.6482 7.82489 12.6482 6.4766V5.85762H10.1727V0.872027H15.1329V4.8556H15.136ZM0.845215 0.249977V6.48273H3.3299C3.3299 7.8586 2.35803 9.55621 0.848274 10.1262L1.46562 11.4653C4.72963 10.8156 7.04928 8.4071 7.04928 4.8556V0.249977H0.845215ZM6.42582 4.8556C6.42582 7.77586 4.67156 9.9944 1.81708 10.7452L1.66733 10.4203C3.15264 9.55314 3.9503 7.82795 3.9503 6.47967V5.85762H1.46562V0.872027H6.42582V4.8556Z" fill="url(#paint0_linear)"/>
<defs>
<linearGradient id="paint0_linear" x1="0.84439" y1="5.85835" x2="15.7584" y2="5.85835" gradientUnits="userSpaceOnUse">
<stop stop-color="#DE8667"/>
<stop offset="1" stop-color="#EFB467"/>
</linearGradient>
</defs>
</svg>
